<svg id="Mood_Emoji_2" xmlns="http://www.w3.org/2000/svg" width="38.171" height="38.243" viewBox="0 0 38.171 38.243">
  <path id="Path_71" d="M4880.731,348h2.386c.244.03.488.065.733.091a19.166,19.166,0,0,1,16.865,15.736c.125.695.2,1.4.293,2.1v2.39c-.058.467-.109.935-.175,1.4a19.176,19.176,0,0,1-15.587,16.228c-.7.128-1.419.2-2.13.3h-2.386c-.12-.023-.239-.05-.36-.067-.8-.116-1.605-.183-2.391-.353a19.122,19.122,0,0,1,.656-37.528C4879.331,348.171,4880.033,348.1,4880.731,348Zm17.483,19.151a16.289,16.289,0,1,0-16.311,16.3A16.317,16.317,0,0,0,4898.214,367.151Z" transform="translate(-4862.837 -348)" fill="#64a4f5"/>
  <path id="Path_72" d="M5006.417,606.178a.688.688,0,0,1-.84-.371,3.317,3.317,0,0,0-6.211.01.688.688,0,0,1-.845.365l-1.336-.451a.69.69,0,0,1-.417-.912,6.094,6.094,0,0,1,11.424,0,.69.69,0,0,1-.422.917Z" transform="translate(-4983.384 -575.669)" fill="#64a4f5"/>
  <path id="Path_73" d="M4983.657,510.315l1.965-1.713a.687.687,0,0,0,0-1.037l-1.966-1.716a.687.687,0,0,1-.1-.929l.843-1.127a.687.687,0,0,1,.979-.126c.431.344.858.683,1.258,1.051a18.9,18.9,0,0,1,1.832,1.85,2.108,2.108,0,0,1,.008,3.036,18.945,18.945,0,0,1-3.1,2.894l-.006,0a.679.679,0,0,1-.97-.124l-.848-1.133A.687.687,0,0,1,4983.657,510.315Z" transform="translate(-4971.412 -488.029)" fill="#64a4f5"/>
  <path id="Path_74" d="M5071.825,508.6l1.969,1.709a.688.688,0,0,1,.1.931l-.845,1.129a.688.688,0,0,1-.979.127c-.365-.29-.724-.577-1.065-.884a25.607,25.607,0,0,1-1.846-1.785,2.243,2.243,0,0,1,.012-3.493c.9-.939,1.91-1.77,2.875-2.644l0,0a.682.682,0,0,1,1,.108l.845,1.129a.687.687,0,0,1-.1.931l-1.969,1.708A.687.687,0,0,0,5071.825,508.6Z" transform="translate(-5047.865 -488.03)" fill="#64a4f5"/>
  <path id="Path_75" d="M4919.842,446.042a23.238,23.238,0,0,0,6.449-5.377.688.688,0,0,1,.952-.1l1.117.874a.688.688,0,0,1,.108.979,25.9,25.9,0,0,1-7.3,6.087.688.688,0,0,1-.946-.283l-.657-1.261A.688.688,0,0,1,4919.842,446.042Z" transform="translate(-4913.849 -431.213)" fill="#64a4f5"/>
  <path id="Path_76" d="M5098.062,441.452l1.115-.873a.688.688,0,0,1,.952.1,23.223,23.223,0,0,0,6.449,5.374.687.687,0,0,1,.272.915l-.654,1.26a.687.687,0,0,1-.945.285,25.853,25.853,0,0,1-7.3-6.084A.687.687,0,0,1,5098.062,441.452Z" transform="translate(-5074.397 -431.228)" fill="#64a4f5"/>
</svg>
