<svg id="Mood_Emoji_4" xmlns="http://www.w3.org/2000/svg" width="38.167" height="38.243" viewBox="0 0 38.167 38.243">
  <g id="Group_237" transform="translate(0 0)">
    <path id="Path_68" d="M3128.558,348h2.386c.65.085,1.3.144,1.949.259a19.166,19.166,0,0,1,15.761,21.447,18.465,18.465,0,0,1-4.627,10.078,18.769,18.769,0,0,1-10.952,6.162c-.705.128-1.42.2-2.131.3h-2.386c-.466-.058-.932-.107-1.4-.174a19.174,19.174,0,0,1-16.2-15.616c-.128-.707-.2-1.424-.3-2.136v-2.39c.083-.639.146-1.282.253-1.916a19.167,19.167,0,0,1,15.544-15.716C3127.158,348.171,3127.86,348.1,3128.558,348Zm17.483,19.133a16.291,16.291,0,1,0-16.293,16.312A16.335,16.335,0,0,0,3146.041,367.133Z" transform="translate(-3110.667 -348)" fill="#2375f6"/>
    <path id="Path_69" d="M3224.758,492.181a1.844,1.844,0,0,1-1.86-1.834,1.865,1.865,0,0,1,1.851-1.891,1.887,1.887,0,0,1,1.87,1.882A1.862,1.862,0,0,1,3224.758,492.181Z" transform="translate(-3211.72 -474.467)" fill="#2375f6"/>
    <path id="Path_70" d="M3348.039,490.307a1.861,1.861,0,0,1-3.721.029,1.888,1.888,0,0,1,1.869-1.883A1.866,1.866,0,0,1,3348.039,490.307Z" transform="translate(-3321.049 -474.465)" fill="#2375f6"/>
  </g>
  <path id="Path_80" d="M3221.785,589.966a1.387,1.387,0,0,1,1.758.417,6.889,6.889,0,0,0,11.162,0,1.387,1.387,0,0,1,1.758-.421l.028.014a1.388,1.388,0,0,1,.5,2.031,9.665,9.665,0,0,1-15.709.016,1.389,1.389,0,0,1,.482-2.046Z" transform="translate(-3210.025 -565.728)" fill="#2375f6"/>
</svg>
