<svg id="Mood_Emoji_5" xmlns="http://www.w3.org/2000/svg" width="38.17" height="38.243" viewBox="0 0 38.17 38.243">
  <path id="Path_64" d="M2266.4,348h2.386c.244.03.488.065.732.091a19.166,19.166,0,0,1,16.865,15.736c.125.695.2,1.4.293,2.1v2.39c-.058.467-.108.935-.175,1.4a19.178,19.178,0,0,1-15.587,16.228c-.7.128-1.42.2-2.13.3H2266.4c-.12-.023-.239-.05-.36-.067-.8-.116-1.605-.183-2.39-.353a19.122,19.122,0,0,1,.656-37.528C2265,348.171,2265.7,348.1,2266.4,348Zm1.182,35.445a16.324,16.324,0,1,0-16.28-16.325A16.336,16.336,0,0,0,2267.58,383.445Z" transform="translate(-2248.505 -348)" fill="#1168f6"/>
  <path id="Path_65" d="M2325.787,525.254a.424.424,0,0,1,.46.41,10.664,10.664,0,0,1-4.868,9.811,10.261,10.261,0,0,1-11.737.178c-3.693-2.282-5.252-5.748-5.15-9.987a.425.425,0,0,1,.46-.412A125.9,125.9,0,0,0,2325.787,525.254Zm-17.206,6.457a8.544,8.544,0,0,0,13.57,0Zm-1.406-2.586a.421.421,0,0,0,.408.317h15.578a.772.772,0,0,0,.179,0c.05-.012.125-.042.136-.08.139-.481.271-.964.412-1.475a.16.16,0,0,0-.164-.2,134.726,134.726,0,0,1-16.7,0,.16.16,0,0,0-.165.2Z" transform="translate(-2296.285 -506.132)" fill="#1168f6"/>
  <path id="Path_66" d="M2467.2,466.927a1.855,1.855,0,0,1-1.838,1.862,1.865,1.865,0,1,1,1.838-1.862Z" transform="translate(-2442.074 -453.401)" fill="#1168f6"/>
  <path id="Path_67" d="M2379.461,466.926a1.859,1.859,0,0,1,1.836-1.867,1.865,1.865,0,1,1,0,3.729A1.854,1.854,0,0,1,2379.461,466.926Z" transform="translate(-2366.419 -453.401)" fill="#1168f6"/>
</svg>
