<svg id="Mood_Emoji_3" xmlns="http://www.w3.org/2000/svg" width="38.17" height="38.243" viewBox="0 0 38.17 38.243">
  <path id="Path_63" d="M3992.175,348h2.386c.245.03.488.065.733.091a19.166,19.166,0,0,1,16.865,15.736c.125.695.2,1.4.293,2.1v2.39c-.058.467-.108.935-.174,1.4a19.178,19.178,0,0,1-15.587,16.228c-.705.128-1.42.2-2.13.3h-2.386c-.12-.023-.239-.05-.36-.067-.8-.116-1.605-.183-2.391-.353a19.122,19.122,0,0,1,.657-37.528C3990.775,348.171,3991.477,348.1,3992.175,348Zm17.484,19.119a16.291,16.291,0,1,0-16.28,16.326A16.333,16.333,0,0,0,4009.659,367.119Z" transform="translate(-3974.282 -348)" fill="#438cf5"/>
  <rect id="Rectangle_97" width="16.68" height="2.772" rx="1.386" transform="translate(10.746 25.192)" fill="#438cf5"/>
  <rect id="Rectangle_98" width="8.333" height="2.77" rx="1.385" transform="translate(7.936 15.871)" fill="#438cf5"/>
  <rect id="Rectangle_99" width="8.337" height="2.76" rx="1.38" transform="translate(21.904 15.871)" fill="#438cf5"/>
</svg>
