<svg id="Mood_Emoji_1" xmlns="http://www.w3.org/2000/svg" width="38.167" height="38.247" viewBox="0 0 38.167 38.247">
  <path id="Path_77" d="M5742.858,348h2.386a2.1,2.1,0,0,0,.287.061,17.808,17.808,0,0,1,8.157,2.576,18.784,18.784,0,0,1,9.43,16.13,17.856,17.856,0,0,1-2.63,10.034,18.838,18.838,0,0,1-13.15,9.149c-.684.129-1.38.2-2.07.29l-2.375.008c-.478-.06-.955-.11-1.431-.179a19.173,19.173,0,0,1-16.2-15.616c-.128-.707-.2-1.424-.3-2.136l0-2.362c.085-.648.147-1.3.257-1.944a19.167,19.167,0,0,1,15.543-15.716C5741.458,348.171,5742.16,348.1,5742.858,348Zm10.963,20.378c.118-.1.183-.148.24-.205q2.714-2.718,5.434-5.432a.437.437,0,0,0,.091-.528A16.158,16.158,0,0,0,5741.7,351c-6.594,1.041-10.954,4.909-13.187,11.2a.478.478,0,0,0,.143.581q2.672,2.656,5.326,5.328c.076.075.158.142.309.278v-.664a1.992,1.992,0,0,1,1.992-1.992h15.544a1.992,1.992,0,0,1,1.992,1.992Zm-15.744,8.511h11.942a1,1,0,0,0,1-1v-6.337a1,1,0,0,0-1-1h-11.942a1,1,0,0,0-1,1v6.337A1,1,0,0,0,5738.077,376.888Zm-6.24.982a16.174,16.174,0,0,0,24.4.008h-2.425a1.809,1.809,0,0,1-1.81,1.81h-15.92a1.817,1.817,0,0,1-1.817-1.817h-2.428Zm2.442-2.826c0-.8-.01-1.547.007-2.292.01-.449-.211-.677-.814-1.064a16.2,16.2,0,0,1-5.038-5.077,2.544,2.544,0,0,0-.616-.692c-.011.115-.019.173-.022.232a16.392,16.392,0,0,0,1.681,8.276.924.924,0,0,0,1,.632C5731.726,375.013,5732.979,375.045,5734.279,375.045Zm19.543,0c1.474,0,2.9,0,4.326-.011.094,0,.219-.141.274-.246a16.116,16.116,0,0,0,1.915-7.774c0-.35-.029-.7-.049-1.113-2.15,2.152-4.242,4.244-6.33,6.341a.46.46,0,0,0-.131.286C5753.818,373.347,5753.822,374.167,5753.822,375.043Z" transform="translate(-5724.964 -348)" fill="#70adf4"/>
  <path id="Path_78" d="M5812.611,463.294l-.062-.124a1.362,1.362,0,0,1,.8-1.908,10.554,10.554,0,0,1,5.78.04,1.368,1.368,0,0,1,.836,1.918l-.034.068a1.375,1.375,0,0,1-1.664.684,6.292,6.292,0,0,0-4,.008A1.366,1.366,0,0,1,5812.611,463.294Z" transform="translate(-5803.695 -449.636)" fill="#70adf4"/>
  <path id="Path_79" d="M5950.975,463.226l-.044.087a1.375,1.375,0,0,1-1.663.685,6.3,6.3,0,0,0-4.006.007,1.366,1.366,0,0,1-1.649-.685l-.046-.093a1.367,1.367,0,0,1,.824-1.918,10.506,10.506,0,0,1,5.754,0A1.368,1.368,0,0,1,5950.975,463.226Z" transform="translate(-5921.665 -449.663)" fill="#70adf4"/>
</svg>
